<svg preserveAspectRatio="none" width="100%" height="100%" overflow="visible" style="display: block;" viewBox="0 0 18.2857 18.2857" fill="none" xmlns="http://www.w3.org/2000/svg">
<path d="M2.19886 3.18477C3.05675 2.18483 4.12091 1.38244 5.31824 0.832693C6.51558 0.282949 7.81773 -0.00111832 9.13524 3.30864e-06C14.1897 3.30864e-06 18.2857 4.096 18.2857 9.14972C18.2857 11.9231 17.0514 14.4091 15.101 16.0869L2.19962 3.18477H2.19886ZM1.38438 4.28648L13.9985 16.9006C13.5992 17.152 13.1794 17.373 12.7413 17.5604L0.724571 5.54438C0.912762 5.10629 1.13371 4.68572 1.38438 4.28648ZM0.245333 6.98134L11.3044 18.0404C10.7634 18.1714 10.205 18.2552 9.632 18.2857L0 8.65372C0.0299617 8.08988 0.11209 7.53003 0.245333 6.98134ZM0.11581 10.6857L7.6 18.1707C5.73105 17.8514 4.00728 16.9598 2.66658 15.6191C1.32589 14.2784 0.434362 12.5547 0.115048 10.6857H0.11581Z" fill="#E3E3E3"/>
</svg>
