<svg preserveAspectRatio="none" width="100%" height="100%" overflow="visible" style="display: block;" viewBox="0 0 17.5406 18.2858" fill="none" xmlns="http://www.w3.org/2000/svg">
<path d="M3.02476 3.20591C3.59314 3.66762 3.80648 3.63257 4.87467 3.56095L14.9432 2.95676C15.1566 2.95676 14.979 2.74343 14.9082 2.70838L13.235 1.49924C12.915 1.25086 12.4876 0.965906 11.6693 1.03676L1.92076 1.74838C1.56571 1.78343 1.4941 1.96172 1.63581 2.10343L3.02476 3.20591ZM3.62895 5.55257V16.1461C3.62895 16.7152 3.91314 16.9286 4.5539 16.8928L15.619 16.2528C16.2598 16.2177 16.3314 15.8261 16.3314 15.3636V4.84095C16.3314 4.37924 16.1539 4.1301 15.7615 4.16514L4.1981 4.84095C3.77143 4.87676 3.62895 5.09086 3.62895 5.55257ZM14.5524 6.12019C14.6232 6.44019 14.5524 6.76019 14.2324 6.79676L13.699 6.90343V14.7236C13.2358 14.9728 12.8091 15.1152 12.4533 15.1152C11.8834 15.1152 11.741 14.937 11.3143 14.4044L7.82705 8.92934V14.2261L8.93028 14.476C8.93028 14.476 8.93028 15.116 8.04038 15.116L5.58552 15.2577C5.51467 15.116 5.58552 14.7602 5.83467 14.6893L6.47467 14.5118V7.50762L5.58705 7.436C5.51543 7.116 5.69371 6.65429 6.19124 6.61848L8.82438 6.44095L12.4541 11.9869V7.08019L11.5284 6.97429C11.4575 6.58267 11.7417 6.29848 12.0975 6.26343L14.5524 6.12019ZM1.10248 0.788382L11.2434 0.0417158C12.4884 -0.0649509 12.8091 0.00590624 13.5916 0.575049L16.829 2.8501C17.3623 3.24095 17.5406 3.34762 17.5406 3.77429V16.2528C17.5406 17.0345 17.2564 17.4977 16.2606 17.5678L4.48305 18.2794C3.73638 18.3152 3.37981 18.2086 2.98819 17.7103L0.60419 14.617C0.177524 14.0478 0 13.6219 0 13.1236V2.03181C0 1.39257 0.284952 0.858478 1.10248 0.788382Z" fill="#E3E3E3"/>
</svg>
