<svg preserveAspectRatio="none" width="100%" height="100%" overflow="visible" style="display: block;" viewBox="0 0 18.2857 18.2857" fill="none" xmlns="http://www.w3.org/2000/svg">
<path d="M3.84152 11.5543C3.84052 12.0634 3.63798 12.5514 3.2782 12.9116C2.91841 13.2718 2.43064 13.475 1.92152 13.4766C1.41214 13.4754 0.923982 13.2724 0.563866 12.9122C0.203751 12.5519 0.00100605 12.0637 0 11.5543C0.00140911 11.0452 0.204356 10.5575 0.56445 10.1977C0.924544 9.83785 1.41248 9.63529 1.92152 9.63429H3.84152V11.5543ZM4.8099 11.5543C4.81131 11.0454 5.01415 10.5577 5.37408 10.1979C5.73401 9.83814 6.22175 9.63549 6.73067 9.63429C7.23958 9.63549 7.72732 9.83814 8.08725 10.1979C8.44718 10.5577 8.65002 11.0454 8.65143 11.5543V16.3642C8.65022 16.8733 8.44749 17.3612 8.08756 17.7213C7.72763 18.0814 7.23978 18.2843 6.73067 18.2857C6.22155 18.2843 5.7337 18.0814 5.37377 17.7213C5.01384 17.3612 4.81111 16.8733 4.8099 16.3642V11.5543ZM6.73067 3.84152C6.22181 3.84012 5.73419 3.6374 5.37431 3.27766C5.01442 2.91792 4.81151 2.43038 4.8099 1.92152C4.81111 1.41241 5.01384 0.924475 5.37377 0.564403C5.7337 0.20433 6.22155 0.00140831 6.73067 0C7.23978 0.00140831 7.72763 0.20433 8.08756 0.564403C8.44749 0.924475 8.65022 1.41241 8.65143 1.92152V3.84152H6.73067ZM6.73067 4.8099C7.23965 4.81131 7.72739 5.01413 8.0873 5.37404C8.4472 5.73395 8.65002 6.22168 8.65143 6.73067C8.65002 7.23965 8.4472 7.72739 8.0873 8.0873C7.72739 8.4472 7.23965 8.65002 6.73067 8.65143H1.92152C1.41241 8.65022 0.924475 8.44749 0.564403 8.08756C0.20433 7.72763 0.00140831 7.23978 0 6.73067C0.00140831 6.22155 0.20433 5.7337 0.564403 5.37377C0.924475 5.01384 1.41241 4.81111 1.92152 4.8099H6.73067ZM14.4427 6.73067C14.4441 6.22155 14.647 5.7337 15.0071 5.37377C15.3671 5.01384 15.8551 4.81111 16.3642 4.8099C16.8733 4.81111 17.3612 5.01384 17.7213 5.37377C18.0814 5.7337 18.2843 6.22155 18.2857 6.73067C18.2843 7.23978 18.0814 7.72763 17.7213 8.08756C17.3612 8.44749 16.8733 8.65022 16.3642 8.65143H14.4427V6.73067ZM13.4766 6.73067C13.4752 7.23991 13.2721 7.72788 12.9119 8.08783C12.5517 8.44778 12.0635 8.65042 11.5543 8.65143C11.0454 8.65002 10.5577 8.44718 10.1979 8.08725C9.83814 7.72732 9.63549 7.23958 9.63429 6.73067V1.92152C9.63529 1.41248 9.83785 0.924544 10.1977 0.56445C10.5575 0.204356 11.0452 0.00140911 11.5543 0C12.0637 0.00100605 12.5519 0.203751 12.9122 0.563866C13.2724 0.923982 13.4754 1.41214 13.4766 1.92152V6.73067ZM11.5543 14.4427C12.0637 14.4437 12.5519 14.6464 12.9122 15.0065C13.2724 15.3666 13.4754 15.8548 13.4766 16.3642C13.4754 16.8736 13.2724 17.3617 12.9122 17.7218C12.5519 18.082 12.0637 18.2847 11.5543 18.2857C11.0452 18.2843 10.5575 18.0814 10.1977 17.7213C9.83785 17.3612 9.63529 16.8732 9.63429 16.3642V14.4427H11.5543ZM11.5543 13.4766C11.0451 13.4752 10.5572 13.2721 10.1974 12.9119C9.83756 12.5516 9.63509 12.0635 9.63429 11.5543C9.63549 11.0454 9.83816 10.5578 10.198 10.198C10.5578 9.83816 11.0454 9.63549 11.5543 9.63429H16.3642C16.8732 9.63529 17.3612 9.83785 17.7213 10.1977C18.0814 10.5575 18.2843 11.0452 18.2857 11.5543C18.2847 12.0637 18.082 12.5519 17.7218 12.9122C17.3617 13.2724 16.8736 13.4754 16.3642 13.4766H11.5543Z" fill="#E3E3E3"/>
</svg>
