<svg xmlns="http://www.w3.org/2000/svg" viewBox="0 0 245 240" width="512" height="512">
  <path fill="#5865F2" d="M104.4 102.2c-5.7 0-10.2 5-10.2 11.1s4.6 11.1 10.2 11.1c5.7 0 10.2-5 10.2-11.1.1-6.1-4.5-11.1-10.2-11.1zm36.3 0c-5.7 0-10.2 5-10.2 11.1s4.6 11.1 10.2 11.1c5.7 0 10.2-5 10.2-11.1s-4.5-11.1-10.2-11.1z"/>
  <path fill="#5865F2" d="M189.5 20h-134C38.8 20 20 38.7 20 61.5v117c0 22.8 18.7 41.5 41.5 41.5h113l-5.3-18.6 12.7 11.7 12 11.2 21.3 18.7V61.5c0-22.8-18.7-41.5-41.5-41.5zM162 165s-4.5-5.4-8.2-10.1c16.3-4.6 22.5-14.7 22.5-14.7-5.1 3.3-9.9 5.7-14.2 7.3-6.2 2.6-12.1 4.3-17.8 5.3-11.8 2.2-22.6 1.6-31.9-.1-7-1.3-13-3.2-18-5.3-2.8-1.1-5.8-2.4-8.8-4.1-.4-.2-.9-.4-1.3-.6-.3-.2-.5-.3-.7-.4-3.2-1.8-5-3.1-5-3.1s6 10 21.9 14.7c-3.7 4.7-8.3 10.2-8.3 10.2-27.5-.9-38-18.9-38-18.9 0-40.1 17.9-72.7 17.9-72.7 17.9-13.4 34.9-13 34.9-13l1.2 1.4c-22.4 6.5-32.7 16.4-32.7 16.4s2.7-1.5 7.2-3.7c13.1-5.7 23.5-7.3 27.8-7.7.7-.1 1.3-.2 2-.2 7.1-.9 15.1-1.1 23.4-.2 11 1.2 22.8 4.2 34.9 10.3 0 0-9.8-9.3-30.8-15.9l1.7-2s17-.4 34.9 13c0 0 17.9 32.6 17.9 72.7 0 .1-10.6 17.9-38.1 18.8z"/>
</svg>