<svg preserveAspectRatio="none" width="100%" height="100%" overflow="visible" style="display: block;" viewBox="0 0 20 18.4875" fill="none" xmlns="http://www.w3.org/2000/svg">
<path id="Vector" d="M15.65 9.7875C13.2483 9.7875 11.3 11.7342 11.3 14.1375C11.3 16.5408 13.2483 18.4875 15.65 18.4875C18.0517 18.4875 20 16.5375 20 14.1375C20 11.7375 18.0533 9.7875 15.65 9.7875ZM4.35 9.7875C1.95 9.7875 0 11.735 0 14.1375C0 16.54 1.94833 18.4875 4.35 18.4875C6.75167 18.4875 8.7 16.5392 8.7 14.1375C8.7 11.7358 6.75333 9.7875 4.35 9.7875ZM14.35 4.35C14.35 6.7525 12.4025 8.7 10 8.7C7.59833 8.7 5.65 6.7525 5.65 4.35C5.65 1.95 7.59833 0 10 0C12.4025 0 14.35 1.95 14.35 4.35Z" fill="var(--fill-0, #F06A6A)"/>
</svg>
