<svg preserveAspectRatio="none" width="100%" height="100%" overflow="visible" style="display: block;" viewBox="0 0 20 16.6667" fill="none" xmlns="http://www.w3.org/2000/svg">
<path id="Vector" fill-rule="evenodd" clip-rule="evenodd" d="M19.7938 11.6149C20.0679 12.0611 20.0692 12.6287 19.7951 13.0749L18.122 15.7918L18.1153 15.7999L17.9823 16.0159C17.7361 16.4149 17.2964 16.6633 16.8313 16.6633H13.0593C12.5856 16.6633 12.1559 16.4209 11.9071 16.0146L10.5586 13.8309L10.7362 13.542L13.9527 8.32017L14.1404 8.01439L16.832 8.02384C17.299 8.02384 17.7341 8.26887 17.9803 8.67185L18.112 8.88515L18.122 8.90135L19.7938 11.6149ZM19.2835 12.7509C19.4365 12.5039 19.4385 12.1859 19.2855 11.9389L17.615 9.22535C17.5552 9.1268 17.4594 9.11465 17.4208 9.11465H17.4021C17.3902 9.11668 17.3749 9.11803 17.3576 9.12343C17.3143 9.1322 17.2644 9.15988 17.2245 9.22063L17.2205 9.22738L15.5494 11.9409C15.437 12.1238 15.4063 12.3466 15.4649 12.5538C15.4842 12.6227 15.5135 12.6888 15.5514 12.7496L17.2245 15.4678C17.2658 15.536 17.3389 15.5779 17.4181 15.5779C17.482 15.5779 17.5438 15.5502 17.5864 15.5016C17.5937 15.4908 17.6031 15.4813 17.6097 15.4678L19.2835 12.7509ZM14.8489 5.05042L13.5709 7.12337L9.57997 13.6035L8.23347 15.7885L8.23148 15.7932L8.0931 16.0186C7.84429 16.4236 7.41453 16.6667 6.94087 16.6667H3.16882C2.70114 16.6687 2.26406 16.423 2.01791 16.0193L0.206398 13.077C-0.0690208 12.6314 -0.0690208 12.0624 0.207729 11.6176L6.96215 0.648014C7.21296 0.243008 7.64338 5.54983e-06 8.11373 5.54983e-06H11.8858C12.3541 -0.00134447 12.7912 0.243684 13.038 0.647339L13.1777 0.875492L14.8489 3.58903C15.1216 4.03588 15.1216 4.60357 14.8489 5.05042ZM14.4544 4.31939C14.4544 4.17899 14.4158 4.03791 14.3379 3.91303L12.6668 1.1995C12.6063 1.10027 12.5105 1.0888 12.4719 1.0888C12.3927 1.08812 12.3189 1.12997 12.2776 1.19882L5.66156 11.9402C5.50988 12.1886 5.50988 12.5032 5.66156 12.7516L7.33337 15.4699C7.37528 15.5374 7.44913 15.5785 7.52763 15.5779C7.60613 15.5785 7.67931 15.5374 7.72122 15.4699L14.3379 4.72507C14.4158 4.60019 14.4544 4.45911 14.4544 4.31939Z" fill="var(--fill-0, white)"/>
</svg>
