<svg preserveAspectRatio="none" width="100%" height="100%" overflow="visible" style="display: block;" viewBox="0 0 20 17.9793" fill="none" xmlns="http://www.w3.org/2000/svg">
<path id="Vector" d="M0.648406 5.52145e-05C0.554913 -0.00117289 0.462286 0.0180995 0.377041 0.0565168C0.291797 0.0949341 0.216005 0.151563 0.154998 0.22242C0.0939913 0.293277 0.0492511 0.37664 0.0239249 0.466647C-0.00140138 0.556653 -0.00669849 0.651115 0.00840617 0.743389L2.72757 17.2517C2.79757 17.6684 3.15674 17.9751 3.57924 17.9792H16.6251C16.7787 17.9809 16.9278 17.9275 17.0455 17.8288C17.1632 17.73 17.2417 17.5925 17.2667 17.4409L19.9917 0.749222C20.0067 0.65701 20.0013 0.56264 19.9759 0.472737C19.9505 0.382834 19.9058 0.29958 19.8448 0.228819C19.7838 0.158059 19.708 0.101509 19.6229 0.0631403C19.5377 0.0247716 19.4452 0.00551465 19.3517 0.00672179L0.648406 5.52145e-05ZM12.1001 11.9309H7.93507L6.80841 6.04422H13.1092L12.1001 11.9309Z" fill="var(--fill-0, #0052CC)"/>
</svg>
