<svg preserveAspectRatio="none" width="100%" height="100%" overflow="visible" style="display: block;" viewBox="0 0 20.0001 10.7956" fill="none" xmlns="http://www.w3.org/2000/svg">
<path id="Vector" d="M0.799167 0C0.349167 0 0 0.35 0 0.749167V7.04C0.0209864 8.04385 0.43585 8.9992 1.15505 9.69984C1.87425 10.4005 2.84011 10.7903 3.84417 10.785C4.54938 10.7842 5.2414 10.5937 5.84766 10.2335C6.45393 9.87321 6.95212 9.3565 7.29 8.7375C7.93917 9.93583 9.2375 10.785 10.685 10.785C12.8325 10.785 14.58 9.0875 14.58 6.94083C14.63 4.89333 12.8825 3.195 10.7358 3.195C9.2875 3.195 7.99 3.99417 7.34083 5.1925C6.69083 3.99417 5.3925 3.195 3.895 3.195C2.99583 3.195 2.19667 3.495 1.5475 3.94417V0.749167C1.54305 0.552015 1.46281 0.364159 1.32345 0.224639C1.18408 0.0851187 0.996313 0.00466556 0.799167 0ZM14.6683 3.11417C14.4631 3.0792 14.2523 3.1265 14.0817 3.24583C13.7817 3.49583 13.6825 3.995 13.9317 4.34417L15.9292 6.94083L13.9325 9.53667C13.6825 9.88667 13.7325 10.3367 14.0825 10.5867C14.4317 10.8367 14.9292 10.835 15.1792 10.485L16.8783 8.28833L18.625 10.5358C18.875 10.8358 19.3742 10.885 19.7233 10.6358C20.0233 10.3858 20.0733 9.93583 19.8242 9.58667L17.8758 6.99083L19.8242 4.44333C20.0742 4.09417 20.0725 3.595 19.7233 3.345C19.3233 3.095 18.8742 3.145 18.625 3.495L16.8783 5.64167L15.1783 3.39583C15.0542 3.24583 14.8675 3.14583 14.6683 3.11417ZM3.84417 4.6925C5.1425 4.6925 6.19167 5.7425 6.19167 6.99083C6.19167 8.28917 5.1425 9.2875 3.84417 9.2875C2.54583 9.2875 1.4975 8.28917 1.4975 6.99083C1.4975 5.7425 2.54583 4.6925 3.84417 4.6925ZM10.7358 4.6925C12.0342 4.6925 13.0825 5.7425 13.0825 6.99083C13.0325 8.28917 11.9842 9.2875 10.7358 9.2875C9.4375 9.2875 8.38833 8.28917 8.38833 6.99083C8.38833 5.7425 9.4375 4.6925 10.7358 4.6925Z" fill="var(--fill-0, #0061D5)"/>
</svg>
