<svg preserveAspectRatio="none" width="100%" height="100%" overflow="visible" style="display: block;" viewBox="0 0 19.9996 19.5163" fill="none" xmlns="http://www.w3.org/2000/svg">
<path id="Vector" d="M0.72514 14.9723C0.518473 15.2907 0.283473 15.7015 0.0893067 16.0098C0.00406648 16.1533 -0.0214257 16.3245 0.0183179 16.4866C0.0580616 16.6487 0.159863 16.7887 0.301807 16.8765L4.43931 19.4215C4.51123 19.4659 4.59126 19.4955 4.67474 19.5086C4.75822 19.5217 4.84348 19.5181 4.92555 19.4979C5.00761 19.4778 5.08484 19.4415 5.15273 19.3911C5.22062 19.3408 5.27781 19.2775 5.32097 19.2048C5.48681 18.9282 5.69931 18.569 5.93181 18.1873C7.57097 15.4815 9.21931 15.8098 12.1885 17.2323L16.3193 19.1798C16.3962 19.2165 16.4798 19.2373 16.5649 19.2411C16.6501 19.2449 16.7351 19.2316 16.815 19.2019C16.8949 19.1722 16.968 19.1268 17.03 19.0683C17.092 19.0098 17.1416 18.9395 17.176 18.8615L19.146 14.4065C19.2127 14.2536 19.2167 14.0806 19.1572 13.9248C19.0976 13.7689 18.9793 13.6427 18.8276 13.5732C17.4455 12.9237 16.0663 12.2678 14.6901 11.6057C9.09264 8.89983 4.35347 9.079 0.72514 14.9723ZM19.276 4.544C19.4835 4.2065 19.7185 3.81483 19.9126 3.50233C19.9963 3.3592 20.0207 3.18909 19.9809 3.02819C19.9411 2.86728 19.84 2.72825 19.6993 2.64066L15.5626 0.0948299C15.4907 0.0504572 15.4107 0.0208461 15.3272 0.00772327C15.2437 -0.00539959 15.1585 -0.00177166 15.0764 0.0183955C14.9943 0.0385627 14.9171 0.0748655 14.8492 0.125187C14.7813 0.175509 14.7241 0.238843 14.681 0.311497C14.5185 0.590663 14.3051 0.94733 14.0693 1.33233C12.431 4.03733 10.7818 3.70733 7.81264 2.28733L3.69764 0.336497C3.62074 0.299961 3.5373 0.27922 3.45225 0.275498C3.36719 0.271777 3.28226 0.285152 3.20246 0.314832C3.12267 0.344512 3.04964 0.389894 2.98769 0.448294C2.92574 0.506693 2.87614 0.576923 2.84181 0.65483L0.871807 5.10983C0.805108 5.26274 0.801092 5.43573 0.860624 5.59157C0.920156 5.74741 1.03848 5.87366 1.19014 5.94316C2.05597 6.3515 3.77764 7.16566 5.32764 7.91066C10.9093 10.6157 15.6543 10.4348 19.276 4.544Z" fill="var(--fill-0, #E3E3E3)"/>
</svg>
