<svg preserveAspectRatio="none" width="100%" height="100%" overflow="visible" style="display: block;" viewBox="0 0 20 2.54755" fill="none" xmlns="http://www.w3.org/2000/svg">
<g id="Group">
<path id="Vector" d="M17.2922 1.33886C17.2521 1.23682 17.1914 1.1441 17.1141 1.06642C17.0386 0.9871 16.948 0.923715 16.8477 0.880011C16.742 0.829963 16.6265 0.804178 16.5096 0.804543C16.473 0.803645 16.4365 0.805158 16.4001 0.809071L16.8077 0.0792869H16.4069L15.7368 1.25811C15.6668 1.37849 15.6296 1.51509 15.6288 1.65432C15.6258 1.81869 15.6724 1.98015 15.7624 2.1177C15.8443 2.24702 15.9582 2.35307 16.093 2.42561C16.2176 2.49599 16.3581 2.53364 16.5013 2.53504C16.6513 2.53455 16.7983 2.49278 16.9262 2.41429C17.0555 2.3354 17.1635 2.22606 17.2409 2.09581C17.3068 1.9824 17.3457 1.85534 17.3546 1.72446C17.3635 1.59358 17.3421 1.46242 17.2922 1.34113V1.33886ZM17.0009 1.66262C17.0017 1.75213 16.9785 1.84023 16.9337 1.91771C16.8896 1.99303 16.826 2.05508 16.7496 2.09732C16.6923 2.13081 16.6289 2.15249 16.5631 2.16108C16.4974 2.16967 16.4305 2.165 16.3666 2.14734C16.3026 2.12969 16.2429 2.0994 16.1908 2.05828C16.1388 2.01715 16.0955 1.96602 16.0635 1.9079C16.0191 1.83082 15.9959 1.74331 15.9964 1.65432C15.997 1.5678 16.021 1.48305 16.0658 1.40905C16.1103 1.3341 16.1735 1.27196 16.2492 1.22868C16.3245 1.1825 16.4111 1.15806 16.4994 1.15806C16.5877 1.15806 16.6743 1.1825 16.7496 1.22868C16.8268 1.27334 16.8909 1.33766 16.9352 1.41509C16.9788 1.49027 17.0014 1.57573 17.0009 1.66262Z" fill="var(--fill-0, #8005D8)"/>
<path id="Vector_2" d="M19.9057 0.775864C19.8966 0.753224 19.8853 0.728319 19.8732 0.700396C19.8542 0.735553 19.8306 0.768035 19.803 0.796996C19.7414 0.858708 19.6624 0.900061 19.5766 0.915482C19.6208 1.0211 19.6431 1.13457 19.6423 1.24905C19.6422 1.36684 19.6191 1.48348 19.5744 1.59244C19.5296 1.70416 19.4626 1.80559 19.3774 1.89054C19.2946 1.97314 19.1957 2.03787 19.0868 2.08072C18.9782 2.12357 18.8625 2.14534 18.7457 2.14487C18.609 2.14477 18.4743 2.11296 18.352 2.05193C18.2297 1.99091 18.1233 1.90234 18.0411 1.79319C17.9588 1.68404 17.9031 1.55729 17.8781 1.42293C17.8532 1.28857 17.8598 1.15025 17.8974 1.01887C17.9373 0.86571 18.0179 0.726192 18.1306 0.615116C18.214 0.531679 18.3137 0.46641 18.4235 0.423425C18.53 0.381184 18.6432 0.358433 18.7578 0.356258C18.8671 0.357289 18.9753 0.378261 19.077 0.418142C19.0913 0.330265 19.1331 0.249165 19.1963 0.186453C19.2238 0.159662 19.2548 0.136576 19.2883 0.117776C19.268 0.107965 19.2468 0.0973994 19.2264 0.0890979C19.075 0.0289155 18.9132 -0.00132685 18.7502 4.46411e-05C18.5864 -0.00101566 18.424 0.0306088 18.2725 0.0930682C18.121 0.155528 17.9835 0.247568 17.868 0.363804C17.7092 0.520286 17.5949 0.716143 17.5367 0.93133C17.4809 1.14261 17.4793 1.36455 17.5322 1.57659C17.5868 1.79105 17.698 1.98692 17.8541 2.14381C18.0102 2.30071 18.2055 2.41287 18.4197 2.46863C18.522 2.49475 18.6272 2.50794 18.7329 2.50787C18.846 2.50782 18.9586 2.49311 19.068 2.4641C19.3348 2.39137 19.5705 2.23316 19.7388 2.0137C19.9072 1.79424 19.9989 1.52564 20 1.24905C20.0003 1.08663 19.9682 0.925768 19.9057 0.775864Z" fill="var(--fill-0, #8005D8)"/>
<path id="Vector_3" d="M15.4115 1.42716C15.3864 1.34349 15.3493 1.26392 15.3013 1.19094C15.2505 1.11817 15.1895 1.0531 15.1202 0.997743L15.1089 0.990951C15.0542 0.949107 14.9955 0.912709 14.9338 0.882275L15.3911 0.0860791H14.0546V0.445311H14.7708L14.4002 1.08755L14.6266 1.14717C14.7352 1.17645 14.8358 1.22985 14.9209 1.30339C14.9258 1.31023 14.9314 1.31655 14.9375 1.32226C14.981 1.36577 15.0161 1.41694 15.0409 1.4732C15.0674 1.53314 15.0813 1.59786 15.0817 1.66338C15.0833 1.75518 15.0592 1.84561 15.0123 1.9245C14.9705 2.00213 14.9081 2.06666 14.8319 2.11091C14.7566 2.15502 14.6709 2.17827 14.5836 2.17827C14.4963 2.17827 14.4106 2.15502 14.3353 2.11091C14.258 2.06642 14.1936 2.00273 14.1481 1.92601C14.1021 1.85061 14.078 1.76382 14.0787 1.67545V1.55772H13.715V1.67696C13.7152 1.82949 13.7553 1.9793 13.8311 2.11164C13.9069 2.24398 14.0159 2.35427 14.1474 2.43165C14.3462 2.54601 14.5821 2.57726 14.8039 2.51861C15.0256 2.45996 15.2152 2.31616 15.3315 2.11846C15.41 1.98628 15.451 1.83521 15.45 1.68149C15.4494 1.59531 15.4365 1.50965 15.4115 1.42716Z" fill="var(--fill-0, #8005D8)"/>
<path id="Vector_4" d="M19.4974 0.265695C19.4507 0.265907 19.4052 0.280541 19.3672 0.307593C19.3292 0.334646 19.3004 0.372795 19.2849 0.416817C19.2694 0.46084 19.2678 0.508583 19.2805 0.553512C19.2931 0.59844 19.3194 0.638356 19.3556 0.667796C19.3918 0.697237 19.4363 0.714761 19.4828 0.71797C19.5294 0.721179 19.5758 0.709917 19.6157 0.685724C19.6557 0.661531 19.6871 0.625592 19.7058 0.582825C19.7245 0.540058 19.7296 0.492555 19.7202 0.44682C19.7098 0.395516 19.6818 0.349427 19.6412 0.316402C19.6006 0.283377 19.5497 0.265457 19.4974 0.265695Z" fill="var(--fill-0, #8005D8)"/>
<path id="Vector_5" d="M0 0.0770229H0.709407C1.22033 0.0770229 1.57051 0.384936 1.57051 0.858126C1.57051 1.33132 1.22033 1.63847 0.709407 1.63847H0V0.0770229ZM0.692049 1.34188C1.00147 1.34188 1.20448 1.15698 1.20448 0.858126C1.20448 0.559269 1.00147 0.373615 0.692049 0.373615H0.361496V1.34188H0.692049Z" fill="var(--fill-0, #8005D8)"/>
<path id="Vector_6" d="M1.74484 0.858125C1.74484 0.393992 2.10634 0.0506088 2.59915 0.0506088C3.09196 0.0506088 3.45345 0.391728 3.45345 0.858125C3.45345 1.32452 3.08969 1.66564 2.59915 1.66564C2.1086 1.66564 1.74484 1.3215 1.74484 0.858125ZM3.08743 0.858125C3.08743 0.761552 3.05879 0.667147 3.00514 0.58685C2.95149 0.506552 2.87523 0.443967 2.78601 0.40701C2.69678 0.370053 2.59861 0.360384 2.50389 0.379224C2.40917 0.398065 2.32217 0.444569 2.25388 0.512857C2.18559 0.581145 2.13909 0.668148 2.12025 0.762866C2.10141 0.857584 2.11108 0.955761 2.14803 1.04498C2.18499 1.13421 2.24757 1.21047 2.32787 1.26412C2.40817 1.31777 2.50257 1.34641 2.59915 1.34641C2.72865 1.34641 2.85284 1.29496 2.94442 1.20339C3.03599 1.11182 3.08743 0.987626 3.08743 0.858125Z" fill="var(--fill-0, #8005D8)"/>
<path id="Vector_7" d="M3.62779 0.858125C3.62779 0.3872 3.98928 0.0506088 4.4753 0.0506088C4.59622 0.0454763 4.71675 0.0676414 4.82793 0.115459C4.93911 0.163277 5.0381 0.235519 5.11754 0.326825L4.88585 0.541156C4.83825 0.483262 4.77831 0.436747 4.7104 0.405016C4.6425 0.373285 4.56836 0.357141 4.49341 0.357767C4.42709 0.355087 4.36094 0.366213 4.29914 0.39044C4.23735 0.414667 4.18126 0.451467 4.13443 0.498508C4.0876 0.545548 4.05106 0.601804 4.02711 0.663708C4.00317 0.725613 3.99234 0.791817 3.99532 0.858125C3.99243 0.92457 4.00339 0.99089 4.02752 1.05287C4.05165 1.11484 4.08842 1.17112 4.13548 1.21811C4.18255 1.2651 4.23888 1.30178 4.30089 1.32582C4.3629 1.34986 4.42924 1.36072 4.49568 1.35773C4.57086 1.35841 4.64522 1.34206 4.71319 1.30991C4.78115 1.27776 4.84096 1.23063 4.88812 1.17208L5.11981 1.38641C5.04066 1.47887 4.94148 1.55208 4.82981 1.60047C4.71813 1.64885 4.59689 1.67114 4.4753 1.66564C3.98928 1.66564 3.62779 1.3283 3.62779 0.858125Z" fill="var(--fill-0, #8005D8)"/>
<path id="Vector_8" d="M5.33414 0.951707V0.0770229H5.69563V0.938122C5.69563 1.23471 5.82469 1.35773 6.04355 1.35773C6.2624 1.35773 6.39146 1.23471 6.39146 0.938122V0.0770229H6.74842V0.951707C6.74842 1.41131 6.48504 1.66564 6.04128 1.66564C5.59752 1.66564 5.33414 1.41131 5.33414 0.951707Z" fill="var(--fill-0, #8005D8)"/>
<path id="Vector_9" d="M8.52345 1.63847V0.700396L8.06385 1.47169H7.90083L7.44349 0.716999V1.63847H7.10539V0.0770229H7.40727L7.99215 1.04755L8.56722 0.0770229H8.86382L8.86834 1.63847H8.52345Z" fill="var(--fill-0, #8005D8)"/>
<path id="Vector_10" d="M10.4449 1.34867V1.63847H9.23739V0.0770229H10.4177V0.366823H9.59511V0.706433H10.3204V0.987177H9.59511V1.34867H10.4449Z" fill="var(--fill-0, #8005D8)"/>
<path id="Vector_11" d="M12.1648 0.0770229V1.63847H11.8682L11.0894 0.690585V1.63847H10.7332V0.0770229H11.0351L11.8079 1.02491V0.0770229H12.1648Z" fill="var(--fill-0, #8005D8)"/>
<path id="Vector_12" d="M12.8591 0.371351H12.3595V0.0770229H13.718V0.371351H13.2176V1.63847H12.8569L12.8591 0.371351Z" fill="var(--fill-0, #8005D8)"/>
</g>
</svg>
