<svg xmlns="http://www.w3.org/2000/svg" viewBox="0 0 20 20" fill="none">
  <svg x="0" y="0" width="53.3336" height="53.3336" viewBox="0 0 53.3336 53.3336" fill="none">
    <path id="Vector" d="M26.5833 0.000215597H46.6133C47.4984 -0.00690254 48.3761 0.162305 49.1951 0.497966C50.0141 0.833627 50.7581 1.32902 51.3836 1.95525C52.0092 2.58148 52.5037 3.32601 52.8385 4.14539C53.1732 4.96478 53.3414 5.84262 53.3333 6.72772V26.7502C53.3333 41.4352 41.435 53.3335 26.75 53.3335H26.5983C23.1064 53.3366 19.6481 52.6515 16.4212 51.3173C13.1942 49.9831 10.2618 48.026 7.79159 45.5579C5.32139 43.0898 3.36182 40.159 2.02489 36.9332C0.687964 33.7073 -0.000110831 30.2496 1.33902e-08 26.7577C1.33902e-08 12.031 11.8783 0.151882 26.5833 0.000215597Z" fill="var(--fill-0, #25C16F)" />
  </svg>
  <svg x="14.372" y="11.88" width="24.4106" height="29.575" viewBox="0 0 24.4106 29.575" fill="none">
    <path id="Vector" d="M12.2117 0C5.4675 0 0 5.46667 0 12.2117V20.515C0.0483333 22.7375 1.83833 24.5275 4.06083 24.5758H7.515V15.0375H2.84833V12.3708C3.13167 7.34917 7.2875 3.42083 12.3183 3.42083C17.3492 3.42083 21.495 7.34167 21.7783 12.3708V15.0375H17.045V24.5825H20.1658V24.7342C20.1325 26.7958 18.47 28.4592 16.4158 28.4842H12.6883C12.385 28.4842 12.0517 28.6358 12.0517 28.9383C12.059 29.1048 12.1284 29.2625 12.2463 29.3804C12.3641 29.4982 12.5218 29.5677 12.6883 29.575H16.4383C19.1092 29.5583 21.27 27.3975 21.2867 24.7267V24.4233C22.1788 24.2224 22.9751 23.7218 23.543 23.0051C24.1108 22.2883 24.4159 21.3986 24.4075 20.4842V12.3708C24.5592 5.4925 19.1042 0.00749985 12.1958 0.00749985L12.2117 0Z" fill="var(--fill-0, white)" />
  </svg>
</svg>
