<svg preserveAspectRatio="none" width="100%" height="100%" overflow="visible" style="display: block;" viewBox="0 0 19.9992 19.2596" fill="none" xmlns="http://www.w3.org/2000/svg">
<path id="Vector" d="M19.667 7.62413L19.639 7.5523L16.9167 0.448045C16.8613 0.308765 16.7633 0.190611 16.6365 0.110545C16.5098 0.0318857 16.3619 -0.00598418 16.2129 0.00204806C16.064 0.0100803 15.921 0.0636278 15.8035 0.155462C15.6871 0.249917 15.6028 0.377919 15.5618 0.522045L13.7239 6.14538H6.28129L4.44321 0.522045C4.40334 0.377118 4.31877 0.24846 4.20154 0.154379C4.08395 0.06257 3.94101 0.0090522 3.79204 0.00104978C3.64306 -0.00695264 3.49521 0.0309456 3.36846 0.109629C3.24205 0.189996 3.14405 0.308016 3.08829 0.447045L0.361042 7.54813L0.333959 7.61996C-0.0579175 8.64384 -0.106295 9.76737 0.19612 10.8211C0.498536 11.8749 1.13535 12.8018 2.01054 13.462L2.01996 13.4693L2.04496 13.487L6.19163 16.5924L8.24329 18.1451L9.49288 19.0885C9.63905 19.1995 9.81755 19.2596 10.0011 19.2596C10.1846 19.2596 10.3631 19.1995 10.5093 19.0885L11.7589 18.1451L13.8105 16.5924L17.9821 13.4683L17.9925 13.46C18.8658 12.7996 19.5011 11.8737 19.8031 10.8213C20.105 9.76896 20.0573 8.64703 19.667 7.62413Z" fill="var(--fill-0, #FC6D26)"/>
</svg>
