<svg preserveAspectRatio="none" width="100%" height="100%" overflow="visible" style="display: block;" viewBox="0 0 20 15.0046" fill="none" xmlns="http://www.w3.org/2000/svg">
<path id="Vector" d="M20 2.04961V13.6404C20 14.3938 19.39 15.0038 18.6367 15.0038H15.4542V7.27711L10 11.3688L4.54583 7.27711V15.0046H1.36333C1.18423 15.0046 1.00688 14.9693 0.841416 14.9008C0.675954 14.8322 0.525625 14.7317 0.399017 14.605C0.272408 14.4783 0.172003 14.3279 0.103539 14.1624C0.0350737 13.9969 -0.000109223 13.8195 2.5471e-07 13.6404V2.04961C2.5471e-07 0.363776 1.92417 -0.598724 3.2725 0.412942L4.54583 1.36878L10 5.45878L15.4542 1.36711L16.7275 0.412942C18.075 -0.597891 20 0.363776 20 2.04961Z" fill="var(--fill-0, #EA4335)"/>
</svg>
