<svg preserveAspectRatio="none" width="100%" height="100%" overflow="visible" style="display: block;" viewBox="0 0 19.0834 20" fill="none" xmlns="http://www.w3.org/2000/svg">
<path id="Vector" d="M14.6796 6.60831V4.23665C14.9935 4.08989 15.2593 3.85712 15.4462 3.56535C15.6331 3.27359 15.7334 2.9348 15.7354 2.58831V2.53248C15.7341 2.04812 15.5412 1.58397 15.1988 1.2414C14.8564 0.898833 14.3923 0.705685 13.9079 0.704145H13.8521C13.3679 0.705684 12.904 0.898717 12.5616 1.24111C12.2192 1.5835 12.0261 2.04744 12.0246 2.53165V2.58748C12.0261 2.93195 12.1249 3.269 12.3094 3.55985C12.494 3.85071 12.7569 4.08357 13.0679 4.23165L13.0788 4.23665V6.61331C12.172 6.75186 11.3182 7.12857 10.6046 7.70498L10.6146 7.69665L4.09128 2.61748C4.21547 2.15219 4.17444 1.65823 3.97517 1.21982C3.7759 0.781405 3.43074 0.42568 2.99853 0.213295C2.56631 0.000909397 2.07381 -0.0549858 1.605 0.0551388C1.13618 0.165264 0.720078 0.43459 0.427629 0.817198C0.13518 1.19981 -0.0155059 1.67201 0.00126261 2.15329C0.0180311 2.63457 0.201216 3.09514 0.519585 3.45647C0.837953 3.8178 1.27179 4.05751 1.74714 4.13474C2.22248 4.21197 2.70989 4.12193 3.12628 3.87998L3.11628 3.88498L9.53044 8.87748C8.96342 9.7276 8.6623 10.7273 8.66544 11.7491C8.66544 12.8683 9.01961 13.9058 9.62128 14.755L9.61044 14.7383L7.65878 16.6908C7.50254 16.6404 7.33961 16.6137 7.17544 16.6116H7.17378C6.8387 16.6116 6.51115 16.711 6.23255 16.8972C5.95394 17.0833 5.7368 17.3479 5.60857 17.6575C5.48034 17.9671 5.44679 18.3077 5.51216 18.6363C5.57753 18.965 5.73889 19.2668 5.97582 19.5038C6.21275 19.7407 6.51463 19.9021 6.84326 19.9674C7.1719 20.0328 7.51254 19.9992 7.82211 19.871C8.13167 19.7428 8.39627 19.5256 8.58242 19.247C8.76858 18.9684 8.86794 18.6409 8.86794 18.3058C8.86568 18.1372 8.83758 17.97 8.78461 17.81L8.78878 17.8216L10.7196 15.8908C11.3489 16.371 12.0795 16.7014 12.8557 16.8568C13.632 17.0121 14.4334 16.9885 15.1991 16.7875C15.9648 16.5865 16.6745 16.2136 17.2744 15.6971C17.8743 15.1805 18.3485 14.534 18.6609 13.8066C18.9733 13.0792 19.1157 12.2902 19.0772 11.4995C19.0388 10.7088 18.8206 9.93731 18.4391 9.24366C18.0577 8.55001 17.523 7.95248 16.8759 7.49654C16.2288 7.0406 15.4862 6.73825 14.7046 6.61248L14.6746 6.60831H14.6796ZM13.8763 14.4233C13.3482 14.4218 12.8325 14.2639 12.3941 13.9695C11.9558 13.675 11.6145 13.2573 11.4134 12.7691C11.2123 12.2808 11.1604 11.7439 11.2643 11.2262C11.3682 10.7084 11.6231 10.2331 11.997 9.86015C12.3708 9.48723 12.8468 9.23345 13.3648 9.13088C13.8828 9.0283 14.4196 9.08153 14.9073 9.28383C15.3951 9.48614 15.812 9.82844 16.1053 10.2675C16.3986 10.7066 16.5553 11.2228 16.5554 11.7508V11.7525C16.5556 12.1035 16.4865 12.451 16.3522 12.7753C16.218 13.0996 16.0211 13.3943 15.7729 13.6425C15.5247 13.8907 15.2301 14.0875 14.9058 14.2218C14.5815 14.356 14.2339 14.4251 13.8829 14.425L13.8763 14.4233Z" fill="var(--fill-0, #FF7A59)"/>
</svg>
