<svg preserveAspectRatio="none" width="100%" height="100%" overflow="visible" style="display: block;" viewBox="0 0 20 20" fill="none" xmlns="http://www.w3.org/2000/svg">
<path id="Vector" d="M9.6425 9.59417H0C0.000326691 10.166 0.113428 10.7321 0.332828 11.2601C0.552229 11.7882 0.87362 12.2677 1.2786 12.6714C1.68359 13.0751 2.16421 13.3949 2.69296 13.6126C3.22171 13.8303 3.7882 13.9415 4.36 13.94H6.135V15.6542C6.135 16.8065 6.59263 17.9116 7.40728 18.7265C8.22192 19.5415 9.32687 19.9996 10.4792 20V10.4317C10.4792 10.2095 10.3909 9.99653 10.2339 9.83946C10.0768 9.6824 9.86378 9.59417 9.64167 9.59417H9.6425ZM14.4117 4.7975H4.78C4.78022 5.94994 5.23818 7.05511 6.05316 7.86993C6.86814 8.68475 7.97339 9.1425 9.12583 9.1425H10.9V10.8575C10.9009 12.0097 11.3591 13.1145 12.1739 13.9292C12.9887 14.7439 14.0936 15.2018 15.2458 15.2025V5.63167C15.2458 5.41043 15.1579 5.19826 15.0015 5.04182C14.8451 4.88539 14.6329 4.7975 14.4117 4.7975ZM19.1775 0H9.54583C9.54583 1.15259 10.0037 2.25797 10.8187 3.07297C11.6337 3.88797 12.7391 4.34583 13.8917 4.34583H15.6658V6.06C15.6667 7.20999 16.1234 8.31275 16.9357 9.1267C17.7481 9.94064 18.85 10.3994 20 10.4025V0.8375C20.0009 0.617695 19.915 0.406419 19.761 0.249594C19.607 0.0927693 19.3973 0.00307238 19.1775 0Z" fill="var(--fill-0, #0052CC)"/>
</svg>
