<svg preserveAspectRatio="none" width="100%" height="100%" overflow="visible" style="display: block;" viewBox="0 0 20 20" fill="none" xmlns="http://www.w3.org/2000/svg">
<path id="Vector" d="M2.405 3.48334C3.34332 2.38966 4.50724 1.51204 5.81683 0.910758C7.12642 0.309475 8.55064 -0.00122317 9.99167 3.61882e-06C15.52 3.61882e-06 20 4.48 20 10.0075C20 13.0408 18.65 15.76 16.5167 17.595L2.40583 3.48334H2.405ZM1.51417 4.68834L15.3108 18.485C14.8742 18.76 14.415 19.0017 13.9358 19.2067L0.7925 6.06417C0.998333 5.585 1.24 5.125 1.51417 4.68834ZM0.268333 7.63584L12.3642 19.7317C11.7725 19.875 11.1617 19.9667 10.535 20L0 9.465C0.0327706 8.8483 0.122599 8.23597 0.268333 7.63584ZM0.126667 11.6875L8.3125 19.8742C6.26834 19.5249 4.38296 18.5498 2.91658 17.0834C1.45019 15.617 0.475084 13.7317 0.125833 11.6875H0.126667Z" fill="var(--fill-0, #5E6AD2)"/>
</svg>
