<svg preserveAspectRatio="none" width="100%" height="100%" overflow="visible" style="display: block;" viewBox="0 0 20 12.05" fill="none" xmlns="http://www.w3.org/2000/svg">
<g id="Group">
<path id="Vector" d="M2.48793 11.9912C1.58783 11.9931 0.756299 11.5106 0.311383 10.7281C-0.127119 9.95049 -0.100824 8.99437 0.379756 8.24201L4.862 1.20337C5.32904 0.433228 6.17434 -0.026061 7.07463 0.00114494C7.97426 0.0227038 8.79255 0.527107 9.21604 1.32113C9.63387 2.11122 9.58164 3.06179 9.08119 3.80345L4.6018 10.8421C4.14013 11.5615 3.34272 11.9949 2.48793 11.9912Z" fill="var(--fill-0, #F62B54)"/>
<path id="Vector_2" d="M10.1761 11.9911C9.27207 11.9911 8.4402 11.5078 8.00337 10.731C7.56584 9.95544 7.59214 9.00174 8.07174 8.2515L12.5454 1.22901C13.0057 0.447811 13.8535 -0.0222605 14.76 0.00114032C15.6716 0.0210825 16.4978 0.531032 16.9156 1.32872C17.3306 2.12641 17.2698 3.08268 16.7542 3.82244L12.2814 10.8449C11.8212 11.5612 11.0275 11.9934 10.1761 11.9911Z" fill="var(--fill-0, #FFCC00)"/>
<path id="Vector_3" d="M17.6924 12.05C18.9669 12.05 20 11.0386 20 9.79086C20 8.54316 18.9669 7.5317 17.6924 7.5317C16.418 7.5317 15.3848 8.54316 15.3848 9.79086C15.3848 11.0386 16.418 12.05 17.6924 12.05Z" fill="var(--fill-0, #00CA72)"/>
</g>
</svg>
