<svg preserveAspectRatio="none" width="100%" height="100%" overflow="visible" style="display: block;" viewBox="0 0 20 12.8133" fill="none" xmlns="http://www.w3.org/2000/svg">
<path id="Vector" d="M16.2108 4.69833C16.7447 4.73056 17.2411 4.86056 17.7 5.08833C18.1589 5.31611 18.5594 5.61222 18.9017 5.97667C19.2433 6.34167 19.5117 6.76167 19.7067 7.23667C19.9022 7.71222 20 8.21667 20 8.75C20 9.31 19.8925 9.83583 19.6775 10.3275C19.4631 10.8192 19.1717 11.2489 18.8033 11.6167C18.4356 11.9844 18.0061 12.2758 17.515 12.4908C17.0233 12.7058 16.4975 12.8133 15.9375 12.8133H5C4.31 12.8133 3.66222 12.6814 3.05667 12.4175C2.45111 12.1536 1.92222 11.7953 1.47 11.3425C1.01722 10.8903 0.658889 10.3617 0.395 9.75667C0.131667 9.15111 0 8.50333 0 7.81333C0 7.26611 0.0861111 6.74194 0.258333 6.24083C0.431111 5.73917 0.670556 5.27861 0.976667 4.85917C1.28222 4.43917 1.65 4.07111 2.08 3.755C2.51 3.43944 2.98528 3.20028 3.50583 3.0375C3.74694 2.96583 3.98306 2.91389 4.21417 2.88167C4.44528 2.84833 4.68444 2.82556 4.93167 2.81333H4.94167C5.22778 2.37667 5.56306 1.98417 5.9475 1.63583C6.33139 1.2875 6.74806 0.991389 7.1975 0.7475C7.64639 0.503056 8.12 0.3175 8.61833 0.190833C9.11611 0.0636112 9.62861 0 10.1558 0C10.8658 0 11.5481 0.115834 12.2025 0.3475C12.8564 0.578611 13.4519 0.900833 13.9892 1.31417C14.5264 1.7275 14.9869 2.22194 15.3708 2.7975C15.7553 3.37417 16.0353 4.00833 16.2108 4.69833ZM10.1567 1.25083C9.42056 1.25083 8.72056 1.40194 8.05667 1.70417C7.39278 2.00694 6.82611 2.44167 6.35667 3.00833C6.60444 3.07333 6.84056 3.15639 7.065 3.2575C7.29 3.35806 7.51 3.47361 7.725 3.60417L11.7083 5.9875L13.9842 5.02917C14.1342 4.96417 14.2856 4.9075 14.4383 4.85917C14.5917 4.81028 14.7528 4.76944 14.9217 4.73667C14.7589 4.21611 14.5214 3.7425 14.2092 3.31583C13.8964 2.88917 13.53 2.52306 13.11 2.2175C12.6906 1.91139 12.23 1.67361 11.7283 1.50417C11.2272 1.33528 10.7033 1.25083 10.1567 1.25083ZM2.01167 10.0692L10.2733 6.5825L7.08 4.66833C6.75444 4.47333 6.41278 4.32361 6.055 4.21917C5.69667 4.11472 5.32861 4.0625 4.95083 4.0625C4.44306 4.0625 3.96472 4.16361 3.51583 4.36583C3.06639 4.5675 2.67417 4.83917 2.33917 5.18083C2.00361 5.52306 1.73833 5.92194 1.54333 6.3775C1.34778 6.83306 1.25 7.31167 1.25 7.81333C1.25 8.20389 1.315 8.59917 1.445 8.99917C1.57556 9.39972 1.76444 9.75639 2.01167 10.0692ZM15.9375 11.5633C16.2503 11.5633 16.5497 11.5144 16.8358 11.4167C17.1225 11.3189 17.3894 11.1756 17.6367 10.9867L11.6117 7.38333L3.0275 10.9967C3.32028 11.1789 3.63417 11.3189 3.96917 11.4167C4.30472 11.5139 4.64833 11.5625 5 11.5625L15.9375 11.5633ZM18.4475 10.02C18.6492 9.61611 18.75 9.19305 18.75 8.75083C18.75 8.32083 18.6686 7.93 18.5058 7.57833C18.3431 7.22667 18.1233 6.92889 17.8467 6.685C17.57 6.44055 17.2461 6.25167 16.875 6.11833C16.5039 5.985 16.1133 5.91833 15.7033 5.91833C15.4689 5.91833 15.2361 5.94611 15.005 6.00167C14.7739 6.05722 14.5475 6.12722 14.3258 6.21167C14.1047 6.29611 13.8867 6.38889 13.6717 6.49C13.4572 6.59056 13.2458 6.68639 13.0375 6.7775L18.4475 10.02Z" fill="var(--fill-0, #E3E3E3)"/>
</svg>
