<svg preserveAspectRatio="none" width="100%" height="100%" overflow="visible" style="display: block;" viewBox="0 0 20 14" fill="none" xmlns="http://www.w3.org/2000/svg">
<path id="Vector" d="M8.33833 1.5125C8.66524 1.16832 9.05882 0.894315 9.49508 0.707203C9.93134 0.520092 10.4011 0.423789 10.8758 0.424167C12.1758 0.424167 13.3375 1.17417 13.9508 2.26167C14.4758 2.01167 15.0758 1.88667 15.7008 1.88667C18.0758 1.88667 20 3.83667 20 6.23667C20 8.63667 18.075 10.5867 15.6867 10.5867C15.3992 10.5867 15.1117 10.55 14.8367 10.5C14.5668 10.9932 14.169 11.4044 13.685 11.6904C13.201 11.9764 12.6488 12.1265 12.0867 12.125C11.5867 12.125 11.1242 12 10.7117 11.8125C10.4353 12.4619 9.97397 13.0157 9.38506 13.4047C8.79616 13.7937 8.10578 14.0007 7.4 14C6.66429 14.0019 5.94579 13.7775 5.34202 13.3571C4.73825 12.9367 4.27844 12.3407 4.025 11.65C3.8 11.7017 3.575 11.7133 3.3375 11.7133C1.50083 11.7133 0 10.2133 0 8.33833C0 7.08833 0.675833 6.00083 1.675 5.41333C1.4625 4.93833 1.35 4.41333 1.35 3.875C1.35 1.725 3.1 0 5.225 0C6.5 0 7.6 0.5875 8.325 1.5" fill="var(--fill-0, #E3E3E3)"/>
</svg>
