<svg preserveAspectRatio="none" width="100%" height="100%" overflow="visible" style="display: block;" viewBox="0 0 17.5875 20" fill="none" xmlns="http://www.w3.org/2000/svg">
<path id="Vector" d="M11.5742 19.9825L17.5875 18.6817C17.5875 18.6817 15.4175 4.00417 15.4 3.90667C15.385 3.81 15.305 3.74667 15.2242 3.74667C15.1433 3.74667 13.6167 3.63333 13.6167 3.63333C13.6167 3.63333 12.5542 2.57167 12.4175 2.4575C12.38 2.42667 12.355 2.41 12.3167 2.39583L11.555 19.9825H11.5742ZM8.55167 9.42083C8.55167 9.42083 7.87667 9.0675 7.07333 9.0675C5.8675 9.0675 5.82 9.8225 5.82 10.0183C5.82 11.045 8.52 11.4475 8.52 13.8758C8.52 15.7883 7.32 17.0092 5.68167 17.0092C3.72 17.0092 2.73167 15.7883 2.73167 15.7883L3.27 14.05C3.27 14.05 4.3075 14.9383 5.17 14.9383C5.7325 14.9383 5.9825 14.4842 5.9825 14.1617C5.9825 12.8125 3.77083 12.75 3.77083 10.5292C3.7425 8.665 5.08 6.84917 7.79333 6.84917C8.84083 6.84917 9.35583 7.15 9.35583 7.15L8.56833 9.4125L8.55167 9.42083ZM8.10167 0.691667C8.215 0.691667 8.3275 0.723333 8.43917 0.804167C7.61917 1.19167 6.71917 2.17 6.34917 4.13083C5.8025 4.30833 5.27167 4.46833 4.775 4.6125C5.2075 3.125 6.2525 0.7 8.10167 0.7V0.691667ZM9.13083 3.14917V3.26167C8.5025 3.455 7.81167 3.665 7.13583 3.875C7.52417 2.39417 8.24667 1.67083 8.87333 1.39917C9.03417 1.81667 9.13083 2.37917 9.13083 3.14917ZM9.58 1.2875C10.1583 1.34917 10.5308 2.01 10.7708 2.75C10.48 2.845 10.1583 2.9425 9.80583 3.055V2.845C9.80583 2.21833 9.72583 1.7025 9.58 1.28583V1.2875ZM12.0733 2.36167C12.0567 2.36167 12.0233 2.37917 12.0083 2.37917C11.9933 2.37917 11.7675 2.44167 11.4133 2.55417C11.0608 1.52667 10.4333 0.579167 9.32333 0.579167H9.2275C8.90583 0.174167 8.5175 0 8.18083 0C5.5925 0 4.35583 3.23083 3.96833 4.87167C2.97333 5.17583 2.24917 5.40167 2.16833 5.43333C1.60583 5.61083 1.59 5.62667 1.525 6.15833C1.4625 6.54333 0 17.8775 0 17.8775L11.3008 20L12.0733 2.36167Z" fill="var(--fill-0, #7AB55C)"/>
</svg>
