<svg preserveAspectRatio="none" width="100%" height="100%" overflow="visible" style="display: block;" viewBox="0 0 14.2775 20" fill="none" xmlns="http://www.w3.org/2000/svg">
<path id="Vector" d="M8.785 7.625C6.975 6.95333 5.98833 6.43667 5.98833 5.6175C5.98833 4.925 6.5575 4.53 7.5725 4.53C9.42833 4.53 11.335 5.245 12.6475 5.88917L13.3892 1.31083C12.3483 0.8125 10.2192 0 7.27583 0C5.19417 0 3.4625 0.545 2.225 1.56C0.938333 2.6225 0.269167 4.16 0.269167 6.015C0.269167 9.38083 2.325 10.815 5.66583 12.0308C7.82 12.7975 8.53667 13.3425 8.53667 14.1833C8.53667 15 7.83667 15.4708 6.575 15.4708C5.0125 15.4708 2.4375 14.7033 0.75 13.7133L0 18.3425C1.45083 19.1583 4.12583 20 6.9 20C9.10083 20 10.9358 19.48 12.1733 18.4892C13.56 17.4017 14.2775 15.7925 14.2775 13.7125C14.2775 10.2725 12.1742 8.83667 8.7825 7.625H8.785Z" fill="var(--fill-0, #635BFF)"/>
</svg>
