<svg preserveAspectRatio="none" width="100%" height="100%" overflow="visible" style="display: block;" viewBox="0 0 20 20" fill="none" xmlns="http://www.w3.org/2000/svg">
<path id="Vector" d="M17.5 0H2.5C1.125 0 0 1.125 0 2.5V5.715C0 5.715 3.21167 7.58167 3.415 7.69833C3.67333 7.84833 3.99333 7.84583 4.25167 7.69833C4.46833 7.57583 10.935 3.85833 11.0317 3.8025C11.2642 3.66833 11.515 3.71333 11.655 3.79417C11.7917 3.875 12.16 4.08417 12.355 4.19417C12.5483 4.30583 12.5392 4.6125 12.3658 4.7125L4.2725 9.37083C3.98417 9.5375 3.6975 9.54083 3.39917 9.3725C2.89833 9.08917 0.831667 7.88583 0 7.40167V9.085L3.415 11.0683C3.67333 11.2183 3.99333 11.2158 4.25167 11.0683C4.46833 10.9458 10.935 7.2275 11.0317 7.17167C11.2642 7.03833 11.515 7.08333 11.655 7.165C11.7917 7.245 12.16 7.45417 12.355 7.565C12.5483 7.67583 12.5392 7.98167 12.3658 8.08167C12.1925 8.1825 4.62583 12.5367 4.2725 12.74C3.98417 12.9067 3.6975 12.9108 3.39917 12.7417C2.89833 12.4592 0.831667 11.255 0 10.7717V12.455L3.415 14.4383C3.67333 14.5883 3.99333 14.5858 4.25167 14.4383C4.46833 14.3158 10.935 10.5975 11.0317 10.5417C11.2642 10.4083 11.515 10.4533 11.655 10.5342C11.7917 10.615 12.16 10.8242 12.355 10.9342C12.5483 11.045 12.5392 11.3525 12.3658 11.4525L4.2725 16.1108C3.98417 16.2767 3.6975 16.2808 3.39917 16.1117C2.89833 15.8283 0.831667 14.625 0 14.1417V17.5C0 18.875 1.125 20 2.5 20H17.5C18.875 20 20 18.875 20 17.5V2.5C20 1.125 18.875 0 17.5 0Z" fill="var(--fill-0, #E44332)"/>
</svg>
