<svg preserveAspectRatio="none" width="100%" height="100%" overflow="visible" style="display: block;" viewBox="0 0 20 20" fill="none" xmlns="http://www.w3.org/2000/svg">
<path id="Vector" d="M17.6225 0H2.3775C1.74742 0.00154027 1.14359 0.252521 0.698055 0.698055C0.252521 1.14359 0.00154027 1.74742 0 2.3775L0 17.6225C0.00154027 18.2526 0.252521 18.8564 0.698055 19.3019C1.14359 19.7475 1.74742 19.9985 2.3775 20H17.6225C18.2526 19.9985 18.8564 19.7475 19.3019 19.3019C19.7475 18.8564 19.9985 18.2526 20 17.6225V2.3775C19.9985 1.74742 19.7475 1.14359 19.3019 0.698055C18.8564 0.252521 18.2526 0.00154027 17.6225 0ZM8.61667 14.4058C8.61667 14.6165 8.533 14.8185 8.38406 14.9674C8.23513 15.1163 8.03313 15.2 7.8225 15.2H4.48917C4.27846 15.2 4.07638 15.1164 3.92731 14.9674C3.77824 14.8185 3.69439 14.6165 3.69417 14.4058V4.48333C3.69417 4.37897 3.71474 4.27563 3.7547 4.17923C3.79466 4.08282 3.85323 3.99523 3.92707 3.92148C4.0009 3.84772 4.08855 3.78924 4.185 3.74938C4.28145 3.70952 4.38481 3.68906 4.48917 3.68917H7.8225C8.03306 3.68939 8.23493 3.77313 8.38382 3.92202C8.5327 4.0709 8.61645 4.27277 8.61667 4.48333V14.4058ZM16.3108 9.85C16.3112 9.95415 16.2908 10.0573 16.251 10.1536C16.2111 10.2498 16.1525 10.3371 16.0787 10.4105C16.0048 10.484 15.9171 10.542 15.8206 10.5812C15.7241 10.6205 15.6208 10.6402 15.5167 10.6392H12.1833C12.0793 10.6398 11.9761 10.6199 11.8798 10.5805C11.7835 10.5412 11.6959 10.4831 11.6221 10.4098C11.5483 10.3365 11.4897 10.2492 11.4497 10.1532C11.4097 10.0571 11.3892 9.95406 11.3892 9.85V4.48333C11.3892 4.27271 11.4728 4.07071 11.6218 3.92177C11.7707 3.77284 11.9727 3.68917 12.1833 3.68917H15.5167C15.7272 3.68939 15.9291 3.77313 16.078 3.92202C16.2269 4.0709 16.3106 4.27277 16.3108 4.48333V9.85Z" fill="var(--fill-0, #0052CC)"/>
</svg>
